<svg xmlns="http://www.w3.org/2000/svg" viewBox="0 0 512 512"><circle cx="255.5" cy="193.5" r="123.5" fill="#fff" stroke="#000" stroke-miterlimit="10"/><path d="M441.4 133.2C423.4 75 376 27.6 317.8 9.6 297.4 3.3 276.4 0 256 0c-41.7 0-81.9 12.9-115.5 38.1C90.7 74.7 61 133.2 61 195c0 42.6 13.5 83.1 39 117l156 200 156-200c38.1-51 48.9-116.1 29.4-178.8zM256 300c-57.9 0-105-47.1-105-105S198.1 90 256 90s105 47.1 105 105-47.1 105-105 105z" fill="#e1185f"/><path d="M412 312L256 512V300c57.9 0 105-47.1 105-105S313.9 90 256 90V0c20.4 0 41.4 3.3 61.8 9.6C376 27.6 423.4 75 441.4 133.2 460.9 195.9 450.1 261 412 312z" opacity=".15" fill="#020202"/></svg>